<?xml version="1.0" encoding="utf-8"?>
<!-- Generator: Adobe Illustrator 28.1.0, SVG Export Plug-In . SVG Version: 6.00 Build 0)  -->
<svg version="1.1" xmlns="http://www.w3.org/2000/svg" xmlns:xlink="http://www.w3.org/1999/xlink" x="0px" y="0px"
	 viewBox="0 0 64 64" style="enable-background:new 0 0 64 64;" xml:space="preserve">
<style type="text/css">
	.st0{fill:#8A8ED1;}
	.st1{fill:#FFFFFF;}
	.st2{fill:#321D71;}
	.st3{fill:#BEC7F6;}
</style>
<g id="icon">
	<title>social-studio-day2</title>
	<g>
		<path class="st0" d="M32,8C18.8,8,8,18.8,8,32c0,7.9,3.8,14.9,9.8,19.3c0.7-4.6,3.5-8.5,7.5-10.6c-2.6-2-4.3-5.2-4.3-8.7
			c0-6.1,4.9-11,11-11s11,4.9,11,11c0,3.5-1.7,6.7-4.3,8.7c3.9,2.1,6.8,6,7.5,10.6C52.2,46.9,56,39.9,56,32C56,18.8,45.2,8,32,8z"/>
		<path class="st0" d="M15.1,22.3c0.7-1.2,2.2-1.6,3.4-0.9c1.2,0.7,1.6,2.2,0.9,3.4h0c-0.5,0.8-1.3,1.3-2.2,1.3
			c-0.4,0-0.9-0.1-1.2-0.3C14.8,25,14.4,23.5,15.1,22.3z"/>
		<path class="st0" d="M12.5,32.1c0-1.4,1.1-2.5,2.5-2.5c1.4,0,2.5,1.1,2.5,2.5c0,1.4-1.1,2.5-2.5,2.5h0
			C13.6,34.5,12.5,33.4,12.5,32.1z"/>
		<path class="st0" d="M18.5,42.7c-0.4,0.2-0.8,0.3-1.3,0.3c-0.9,0-1.7-0.5-2.2-1.2c-0.7-1.2-0.3-2.7,0.9-3.4
			c1.2-0.7,2.7-0.3,3.4,0.9C20.1,40.5,19.7,42,18.5,42.7z"/>
		<path class="st0" d="M24.7,19.5c-0.4,0.2-0.8,0.3-1.3,0.3c-0.9,0-1.7-0.4-2.2-1.2c-0.7-1.2-0.3-2.7,0.9-3.4
			c1.2-0.7,2.7-0.3,3.4,0.9C26.3,17.2,25.9,18.8,24.7,19.5z"/>
		<path class="st0" d="M32,17.5C32,17.5,32,17.5,32,17.5C32,17.5,31.9,17.5,32,17.5C31.9,17.5,31.9,17.5,32,17.5
			c-1.5,0-2.6-1.1-2.6-2.5c0-1.4,1.1-2.5,2.5-2.5c0,0,0,0,0,0c0,0,0,0,0,0c0,0,0,0,0,0c1.4,0,2.5,1.1,2.5,2.5
			C34.5,16.4,33.4,17.5,32,17.5z"/>
		<path class="st0" d="M42.7,18.5c-0.5,0.8-1.3,1.2-2.2,1.2c-0.4,0-0.9-0.1-1.2-0.3c-1.2-0.7-1.6-2.2-0.9-3.4
			c0.7-1.2,2.2-1.6,3.4-0.9C42.9,15.8,43.3,17.3,42.7,18.5z"/>
		<path class="st0" d="M45.5,21.3c1.2-0.7,2.7-0.3,3.4,0.9c0.7,1.2,0.3,2.7-0.9,3.4c-0.4,0.2-0.8,0.3-1.2,0.3
			c-0.9,0-1.7-0.4-2.2-1.2C43.9,23.5,44.3,22,45.5,21.3z"/>
		<path class="st0" d="M48.9,41.7c-0.5,0.8-1.3,1.3-2.2,1.3c-0.4,0-0.9-0.1-1.2-0.3c-1.2-0.7-1.6-2.2-0.9-3.4
			c0.7-1.2,2.2-1.6,3.4-0.9C49.2,39,49.6,40.5,48.9,41.7z"/>
		<path class="st0" d="M49,34.5c-1.4,0-2.5-1.1-2.5-2.5c0-1.4,1.1-2.5,2.5-2.5s2.5,1.1,2.5,2.5C51.5,33.4,50.4,34.5,49,34.5z"/>
		<circle class="st1" cx="32" cy="32" r="7"/>
		<path class="st1" d="M32,43.1c-5.7,0-10.4,4.7-10.4,10.4v0.1C24.7,55.1,28.3,56,32,56c3.7,0,7.3-0.9,10.4-2.4v-0.1
			C42.4,47.7,37.7,43.1,32,43.1z"/>
		<circle class="st2" cx="32" cy="32" r="28"/>
		<path class="st1" d="M42.4,53.6C39.3,55.1,35.7,56,32,56c-3.7,0-7.3-0.9-10.4-2.4v-0.1c0-5.7,4.7-10.4,10.4-10.4
			s10.4,4.7,10.4,10.4V53.6z"/>
		<circle class="st1" cx="32" cy="32" r="7"/>
		<path class="st3" d="M46.2,51.3c-0.7-4.6-3.5-8.5-7.5-10.6c2.6-2,4.3-5.2,4.3-8.7c0-6.1-4.9-11-11-11s-11,4.9-11,11
			c0,3.5,1.7,6.7,4.3,8.7c-3.9,2.1-6.8,6-7.5,10.6C11.8,46.9,8,39.9,8,32C8,18.8,18.8,8,32,8s24,10.8,24,24
			C56,39.9,52.2,46.9,46.2,51.3z"/>
		<path class="st1" d="M41.8,15.1c-1.2-0.7-2.7-0.3-3.4,0.9c-0.7,1.2-0.3,2.7,0.9,3.4c0.4,0.2,0.8,0.3,1.2,0.3
			c0.9,0,1.7-0.4,2.2-1.2C43.3,17.3,42.9,15.8,41.8,15.1z"/>
		<path class="st1" d="M15,34.5c1.4,0,2.5-1.1,2.5-2.5c0-1.4-1.1-2.5-2.5-2.5c-1.4,0-2.5,1.1-2.5,2.5C12.5,33.4,13.6,34.5,15,34.5
			L15,34.5z"/>
		<path class="st1" d="M46.7,26c0.4,0,0.9-0.1,1.2-0.3c1.2-0.7,1.6-2.2,0.9-3.4c-0.7-1.2-2.2-1.6-3.4-0.9c-1.2,0.7-1.6,2.2-0.9,3.4
			C45,25.5,45.9,26,46.7,26z"/>
		<path class="st1" d="M16,25.7c0.4,0.2,0.8,0.3,1.2,0.3c0.9,0,1.7-0.5,2.2-1.3h0c0.7-1.2,0.3-2.7-0.9-3.4c-1.2-0.7-2.7-0.3-3.4,0.9
			S14.8,25,16,25.7z"/>
		<path class="st1" d="M48,38.3c-1.2-0.7-2.7-0.3-3.4,0.9c-0.7,1.2-0.3,2.7,0.9,3.4c0.4,0.2,0.8,0.3,1.2,0.3c0.9,0,1.7-0.4,2.2-1.3
			C49.6,40.5,49.2,39,48,38.3z"/>
		<path class="st1" d="M49,29.5c-1.4,0-2.5,1.1-2.5,2.5c0,1.4,1.1,2.5,2.5,2.5s2.5-1.1,2.5-2.5C51.5,30.6,50.4,29.5,49,29.5z"/>
		<path class="st1" d="M32,12.5C32,12.5,32,12.5,32,12.5C32,12.5,32,12.5,32,12.5c-0.1,0-0.1,0-0.1,0c-1.4,0-2.5,1.1-2.5,2.5
			c0,1.4,1.1,2.5,2.5,2.5c0,0,0,0,0,0c0,0,0,0,0,0c0,0,0,0,0,0c1.4,0,2.5-1.1,2.5-2.5C34.5,13.6,33.4,12.5,32,12.5z"/>
		<path class="st1" d="M22.2,15.1c-1.2,0.7-1.6,2.2-0.9,3.4c0.5,0.8,1.3,1.2,2.2,1.2c0.4,0,0.9-0.1,1.3-0.3c1.2-0.7,1.6-2.2,0.9-3.4
			C24.9,14.8,23.4,14.4,22.2,15.1z"/>
		<path class="st1" d="M16,38.4c-1.2,0.7-1.6,2.2-0.9,3.4c0.5,0.8,1.3,1.2,2.2,1.2c0.4,0,0.9-0.1,1.3-0.3c1.2-0.7,1.6-2.2,0.9-3.4
			C18.8,38.1,17.2,37.7,16,38.4z"/>
	</g>
</g>
<g id="Swatches">
</g>
</svg>
